<?xml version="1.0" encoding="utf-8"?><svg xmlns="http://www.w3.org/2000/svg" xmlns:xlink="http://www.w3.org/1999/xlink"><symbol viewBox="0 0 24 24" id="facebook" xmlns="http://www.w3.org/2000/svg"><path d="M15.997 3.985h2.191V.169C17.81.117 16.51 0 14.996 0c-3.159 0-5.323 1.987-5.323 5.639V9H6.187v4.266h3.486V24h4.274V13.267h3.345l.531-4.266h-3.877V6.062c.001-1.233.333-2.077 2.051-2.077z"/></symbol><symbol class="bteam-price-icon" viewBox="0 0 15 15" id="icon" xmlns="http://www.w3.org/2000/svg"><defs><style>.ba{fill:#0fc1a7;stroke:#fff}.bb{stroke:none}.bc{fill:none}</style></defs><g class="ba" transform="translate(4 1)"><circle class="bb" cx="3.5" cy="3.5" r="3.5"/><circle class="bc" cx="3.5" cy="3.5" r="4"/></g><g class="ba"><path class="bb" d="M5 9h5a4 4 0 014 4v1H1v-1a4 4 0 014-4z"/><path class="bc" d="M5 8.5h5a4.5 4.5 0 014.5 4.5v1a.5.5 0 01-.5.5H1a.5.5 0 01-.5-.5v-1A4.5 4.5 0 015 8.5z"/></g></symbol><symbol viewBox="0 0 12.914 12.914" id="magnifying-glass" xmlns="http://www.w3.org/2000/svg"><defs><style>.ca{opacity:.5}.cb{fill:none;stroke:#353e3d;stroke-linecap:round;stroke-linejoin:round;stroke-width:2px}</style></defs><g class="ca"><path class="cb" d="M5.565 10.13A4.565 4.565 0 101 5.565a4.565 4.565 0 004.565 4.565zM11.5 11.5L8.793 8.793"/></g></symbol><symbol viewBox="0 0 15.5 13" id="menu" xmlns="http://www.w3.org/2000/svg"><defs><style>.da{opacity:.5}.db{fill:#353e3d}.dc{fill:none;stroke:#353e3d;stroke-width:2px}</style></defs><g class="da" transform="translate(-260 -1731)"><circle class="db" cx="1.5" cy="1.5" r="1.5" transform="translate(260 1731)"/><circle class="db" cx="1.5" cy="1.5" r="1.5" transform="translate(260 1736)"/><circle class="db" cx="1.5" cy="1.5" r="1.5" transform="translate(260 1741)"/><path class="dc" d="M264.5 1732.5h11M264.5 1737.5h11M264.5 1742.5h11"/></g></symbol><symbol viewBox="0 0 16.42 16.404" id="skype" xmlns="http://www.w3.org/2000/svg"><path d="M15.824 9.546A7.71 7.71 0 006.893.617 4.595 4.595 0 00.637 6.93a7.708 7.708 0 008.909 8.868 4.595 4.595 0 006.278-6.252zm-10.692.266c.767-.041 1.023.872 1.593 1.266.633.428 2.621.884 3.2-.444.431-1.147-.835-1.321-2.083-1.628-1.909-.409-3.508-.9-3.494-2.852-.009-1.881 1.481-2.655 2.913-2.785a5.171 5.171 0 013.894.965c1.086.927.5 1.94-.277 1.961-1.1.03-1.085-1.432-2.9-1.409-1.568-.024-2.286 1.486-.647 2.015 2.3.607 4.139.533 4.733 2.471.457 1.812-.642 3.5-3.321 3.719a4.814 4.814 0 01-3.979-1.213c-.881-1.009-.464-2.022.368-2.066z"/></symbol></svg>