<svg xmlns="http://www.w3.org/2000/svg" width="16.42" height="16.404"><path d="M15.824 9.546A7.71 7.71 0 0 0 6.893.617 4.595 4.595 0 0 0 .637 6.93a7.708 7.708 0 0 0 8.909 8.868 4.595 4.595 0 0 0 6.278-6.252zm-10.692.266c.767-.041 1.023.872 1.593 1.266.633.428 2.621.884 3.2-.444.431-1.147-.835-1.321-2.083-1.628-1.909-.409-3.508-.9-3.494-2.852-.009-1.881 1.481-2.655 2.913-2.785a5.171 5.171 0 0 1 3.894.965c1.086.927.5 1.94-.277 1.961-1.1.03-1.085-1.432-2.9-1.409-1.568-.024-2.286 1.486-.647 2.015 2.3.607 4.139.533 4.733 2.471.457 1.812-.642 3.5-3.321 3.719a4.814 4.814 0 0 1-3.979-1.213c-.881-1.009-.464-2.022.368-2.066z"/></svg>